<svg xmlns="http://www.w3.org/2000/svg" xmlns:xlink="http://www.w3.org/1999/xlink" width="500" zoomAndPan="magnify" viewBox="0 0 375 374.999991" height="500" preserveAspectRatio="xMidYMid meet" version="1.0"><defs><clipPath id="19e332d26e"><path d="M 231 138 L 251.394531 138 L 251.394531 158 L 231 158 Z M 231 138 " clip-rule="nonzero"/></clipPath><clipPath id="e32ead2461"><path d="M 123.894531 119.304688 L 251 119.304688 L 251 255.804688 L 123.894531 255.804688 Z M 123.894531 119.304688 " clip-rule="nonzero"/></clipPath></defs><g clip-path="url(#19e332d26e)"><path fill="#000f14" d="M 250.292969 150.167969 L 238.859375 139.605469 C 237.84375 138.667969 236.261719 138.726562 235.328125 139.742188 L 232.300781 143.011719 C 231.367188 144.027344 231.425781 145.609375 232.441406 146.542969 L 243.859375 157.109375 C 244.875 158.042969 246.457031 157.984375 247.394531 156.96875 L 250.417969 153.703125 C 251.351562 152.6875 251.296875 151.105469 250.28125 150.167969 Z M 250.292969 150.167969 " fill-opacity="1" fill-rule="evenodd"/></g><g clip-path="url(#e32ead2461)"><path fill="#67c7aa" d="M 250.625 203.210938 C 252.371094 185.671875 246.308594 168.539062 233.859375 156.058594 C 224.808594 146.984375 213.066406 141.105469 200.355469 139.398438 L 199.234375 139.246094 L 199.234375 128.117188 L 207.222656 128.117188 C 208.597656 128.117188 209.71875 126.996094 209.71875 125.621094 L 209.71875 121.800781 C 209.71875 120.425781 208.597656 119.304688 207.222656 119.304688 L 179.015625 119.304688 C 177.644531 119.304688 176.523438 120.425781 176.523438 121.800781 L 176.523438 125.621094 C 176.523438 126.996094 177.644531 128.117188 179.015625 128.117188 L 186.394531 128.117188 L 186.394531 139.164062 L 185.261719 139.304688 C 176.140625 140.4375 167.460938 143.679688 159.839844 148.828125 C 156.824219 150.863281 156.167969 155.019531 158.394531 157.894531 C 160.496094 160.605469 164.457031 160.847656 167.214844 159.023438 C 174.746094 154.039062 183.484375 151.429688 192.503906 151.429688 C 204.695312 151.429688 216.289062 156.253906 224.902344 164.867188 C 235.570312 175.535156 240.1875 190.441406 237.660156 205.289062 C 234.367188 224.550781 218.699219 239.777344 199.382812 242.617188 C 192.074219 243.691406 184.6875 243.070312 177.699219 240.667969 C 171.097656 238.40625 165.09375 234.652344 160.152344 229.722656 C 153.085938 222.667969 148.488281 213.535156 147.101562 203.640625 L 146.894531 202.171875 L 153.488281 202.171875 C 156.050781 202.171875 157.667969 199.378906 156.386719 197.160156 L 143.257812 174.425781 C 141.964844 172.199219 138.753906 172.199219 137.460938 174.425781 L 124.335938 197.160156 C 123.054688 199.378906 124.667969 202.171875 127.234375 202.171875 L 134.265625 202.171875 L 134.378906 203.328125 C 135.765625 216.675781 141.722656 229.085938 151.203125 238.566406 C 163.578125 250.933594 180.550781 257.027344 197.976562 255.433594 C 225.535156 252.90625 247.867188 230.761719 250.589844 203.210938 Z M 250.625 203.210938 " fill-opacity="1" fill-rule="evenodd"/></g><path fill="#000f14" d="M 193.910156 206.203125 C 193.738281 206.214844 193.566406 206.226562 193.390625 206.226562 C 191.671875 206.226562 190.019531 205.542969 188.808594 204.332031 C 187.46875 202.992188 186.777344 201.121094 186.925781 199.230469 C 187.074219 197.335938 188.035156 195.589844 189.582031 194.472656 L 208.945312 180.464844 C 209.996094 179.703125 211.460938 179.832031 212.375 180.742188 C 213.296875 181.667969 213.425781 183.121094 212.664062 184.183594 L 198.65625 203.535156 C 197.535156 205.082031 195.816406 206.050781 193.910156 206.203125 Z M 228.386719 177.027344 C 231.980469 183.296875 233.847656 190.351562 233.847656 197.578125 C 233.847656 204.816406 231.980469 211.871094 228.375 218.152344 C 228.351562 218.222656 228.320312 218.304688 228.273438 218.359375 C 228.238281 218.417969 228.191406 218.476562 228.144531 218.535156 C 224.542969 224.675781 219.40625 229.804688 213.261719 233.40625 C 213.195312 233.464844 213.113281 233.519531 213.03125 233.554688 C 212.972656 233.589844 212.917969 233.613281 212.847656 233.636719 C 206.691406 237.15625 199.777344 239.027344 192.6875 239.085938 C 192.640625 239.085938 192.59375 239.097656 192.550781 239.097656 C 192.515625 239.097656 192.480469 239.097656 192.445312 239.097656 C 192.398438 239.097656 192.351562 239.097656 192.304688 239.097656 C 189.175781 239.097656 186.035156 238.726562 182.988281 238.035156 C 181.558594 237.710938 180.65625 236.269531 180.992188 234.835938 C 181.324219 233.417969 182.757812 232.515625 184.191406 232.839844 C 186.058594 233.277344 187.976562 233.542969 189.894531 233.671875 L 189.894531 231.949219 C 189.894531 230.472656 191.082031 229.285156 192.558594 229.285156 C 194.039062 229.285156 195.214844 230.484375 195.214844 231.949219 L 195.214844 233.648438 C 199.683594 233.289062 204.027344 232.113281 208.054688 230.148438 L 207.199219 228.671875 C 206.460938 227.402344 206.902344 225.761719 208.171875 225.035156 C 209.441406 224.296875 211.082031 224.734375 211.820312 226.015625 L 212.664062 227.480469 C 216.414062 224.917969 219.671875 221.664062 222.234375 217.910156 L 220.757812 217.066406 C 219.484375 216.328125 219.046875 214.699219 219.773438 213.429688 C 220.503906 212.148438 222.140625 211.710938 223.421875 212.449219 L 224.902344 213.304688 C 226.886719 209.203125 228.078125 204.769531 228.410156 200.222656 L 226.691406 200.222656 C 225.222656 200.222656 224.023438 199.019531 224.023438 197.554688 C 224.023438 196.089844 225.222656 194.886719 226.691406 194.886719 L 228.410156 194.886719 C 228.078125 190.339844 226.886719 185.914062 224.902344 181.816406 L 223.410156 182.683594 L 223.398438 182.695312 C 222.996094 182.914062 222.546875 183.03125 222.09375 183.03125 C 221.148438 183.03125 220.269531 182.519531 219.796875 181.703125 C 219.058594 180.429688 219.496094 178.792969 220.769531 178.054688 L 222.246094 177.210938 C 219.683594 173.457031 216.425781 170.203125 212.675781 167.636719 L 211.832031 169.117188 C 211.359375 169.9375 210.480469 170.445312 209.523438 170.445312 C 209.058594 170.445312 208.609375 170.328125 208.21875 170.109375 L 208.195312 170.085938 C 206.933594 169.347656 206.496094 167.71875 207.222656 166.449219 L 208.078125 164.960938 C 204.050781 163.007812 199.707031 161.820312 195.25 161.472656 L 195.25 163.171875 C 195.25 164.636719 194.050781 165.835938 192.582031 165.835938 C 191.117188 165.835938 189.917969 164.636719 189.917969 163.171875 L 189.917969 161.460938 C 189.882812 161.460938 189.835938 161.472656 189.800781 161.472656 L 188.21875 161.601562 C 186.878906 161.761719 185.539062 161.980469 184.210938 162.28125 C 182.78125 162.617188 181.347656 161.714844 181.027344 160.285156 C 180.691406 158.851562 181.589844 157.421875 183.023438 157.085938 C 184.664062 156.703125 186.324219 156.425781 187.988281 156.265625 C 191.058594 155.964844 194.140625 155.964844 197.214844 156.324219 C 202.753906 156.957031 208.078125 158.738281 212.917969 161.507812 C 212.984375 161.53125 213.054688 161.566406 213.125 161.613281 C 213.195312 161.644531 213.25 161.691406 213.308594 161.738281 C 215.039062 162.753906 216.703125 163.886719 218.261719 165.144531 L 218.273438 165.15625 C 221.886719 168.078125 224.9375 171.5625 227.476562 175.445312 L 227.488281 175.464844 C 227.730469 175.859375 227.972656 176.25 228.203125 176.65625 C 228.226562 176.679688 228.25 176.714844 228.261719 176.738281 L 228.308594 176.792969 L 228.34375 176.863281 C 228.375 176.921875 228.398438 176.980469 228.410156 177.035156 Z M 193.496094 200.902344 C 193.84375 200.867188 194.152344 200.695312 194.351562 200.429688 L 198.621094 194.519531 L 192.710938 198.789062 C 192.433594 198.984375 192.261719 199.308594 192.238281 199.644531 C 192.214844 199.980469 192.339844 200.3125 192.582031 200.554688 C 192.824219 200.800781 193.160156 200.914062 193.507812 200.890625 Z M 193.496094 200.902344 " fill-opacity="1" fill-rule="evenodd"/></svg>